<?xml version="1.0" encoding="UTF-8"?>
<svg version="1.1" xmlns="http://www.w3.org/2000/svg" width="512" height="512">
<path d="M0 0 C1.35762451 0.80111206 1.35762451 0.80111206 2.74267578 1.6184082 C3.77279785 2.21983643 4.80291992 2.82126465 5.86425781 3.44091797 C6.96108887 4.09374756 8.05791992 4.74657715 9.18798828 5.41918945 C10.34876169 6.10098743 11.51006636 6.78188165 12.671875 7.46191406 C15.0596212 8.86124296 17.44434823 10.26551222 19.82666016 11.67407227 C24.03733751 14.16230543 28.26499832 16.62111225 32.49267578 19.08032227 C38.42420976 22.53186143 44.34712737 25.99817801 50.27197266 29.46118164 C61.60151719 36.08190757 72.94275431 42.68104172 84.31298828 49.23168945 C94.66784023 55.19735274 105.00077345 61.19931602 115.31689453 67.23168945 C119.5058116 69.68036043 123.70206721 72.11590184 127.90283203 74.54418945 C128.98612793 75.17188232 130.06942383 75.7995752 131.18554688 76.44628906 C133.25066944 77.64259342 135.31730652 78.83628872 137.38574219 80.02685547 C151.5775686 88.26085009 151.5775686 88.26085009 153.31298828 91.73168945 C153.40697332 93.72089154 153.43489406 95.71332199 153.4332428 97.70474243 C153.43530479 99.61467232 153.43530479 99.61467232 153.43740845 101.56318665 C153.43386906 102.98214745 153.43023425 104.40110802 153.42651367 105.82006836 C153.42623173 107.30802916 153.42638968 108.79599009 153.42695618 110.28395081 C153.42724387 114.33123607 153.42135173 118.37849188 153.41438222 122.42577028 C153.40814395 126.65252821 153.40754451 130.87928676 153.40635681 135.10604858 C153.4032449 143.11353872 153.39503338 151.12101525 153.38500732 159.12849939 C153.37384186 168.24324352 153.36833464 177.35798829 153.36331189 186.47273755 C153.35285066 205.22572924 153.33525391 223.97870825 153.31298828 242.73168945 C154.11736328 243.04106445 154.92173828 243.35043945 155.75048828 243.66918945 C158.31298828 244.73168945 158.31298828 244.73168945 159.31298828 245.73168945 C159.65045834 249.61857565 159.63813811 253.51954655 159.68798828 257.41918945 C159.72537109 258.5090918 159.76275391 259.59899414 159.80126953 260.72192383 C159.90044101 269.77407581 159.90044101 269.77407581 157.35986328 273.23168945 C154.2132128 275.81355652 151.31996583 277.32324964 147.62426758 278.94995117 C140.39938032 282.03084231 140.39938032 282.03084231 135.26855469 287.65405273 C133.99035305 291.92106416 133.78158313 296.29161217 133.51464844 300.7175293 C132.17155333 314.13222013 120.30053439 329.3791153 110.31298828 337.73168945 C102.27450474 343.70902337 94.37410825 346.13498389 84.31298828 344.73168945 C79.08025775 342.69549102 74.50946824 339.61742992 70.00439453 336.3059082 C66.51606997 333.85287275 63.39304649 332.0589373 59.31298828 330.73168945 C54.71232966 331.54490847 51.29537263 333.77582875 47.47509766 336.32299805 C44.13102059 338.50178358 40.65892328 340.44937532 37.19824219 342.43579102 C34.0918655 344.22453996 31.00221234 346.03975216 27.91455078 347.8605957 C21.1624011 351.83179578 14.36819058 355.7273148 7.56298828 359.60668945 C6.38183098 360.28042751 5.20067866 360.9541743 4.01953125 361.62792969 C1.63907281 362.98552565 -0.74167513 364.34261248 -3.12255859 365.69946289 C-8.39969095 368.70739226 -13.67283509 371.72229969 -18.94625854 374.73672485 C-21.83488128 376.38777878 -24.72387997 378.03817472 -27.61279297 379.6887207 C-31.88375582 382.12904059 -36.15400715 384.5705998 -40.42355347 387.01339722 C-42.96295413 388.46624303 -45.50258679 389.91868304 -48.04223633 391.37109375 C-49.24319819 392.05806634 -50.4440486 392.74523381 -51.64477539 393.43261719 C-53.31872011 394.39088816 -54.99309428 395.34840883 -56.66748047 396.3059082 C-57.69373535 396.90000488 -58.71999023 397.49410156 -59.77734375 398.10620117 C-61.62734254 399.13970444 -63.50748036 400.12221435 -65.42089844 401.03295898 C-70.46774843 403.4175124 -70.46774843 403.4175124 -73.04638672 408.26293945 C-73.23974609 410.2274707 -73.23974609 410.2274707 -73.43701172 412.23168945 C-73.62678796 413.66526279 -73.82615997 415.09759557 -74.03466797 416.52856445 C-74.18379639 417.59300781 -74.18379639 417.59300781 -74.3359375 418.67895508 C-76.92590754 433.8225351 -87.21110271 447.07760046 -98.68701172 456.73168945 C-105.99162731 461.60783232 -112.77414214 464.60836515 -121.68701172 463.73168945 C-126.64372947 461.84997253 -131.15316225 459.06237834 -135.67529297 456.32543945 C-136.3779126 455.9089917 -137.08053223 455.49254395 -137.80444336 455.06347656 C-139.2068335 454.22878551 -140.59851847 453.37579178 -141.9777832 452.50341797 C-145.1531502 450.61562715 -146.84228966 449.61639631 -150.57763672 450.1262207 C-155.77112567 452.80778346 -160.73748711 455.83287943 -165.69873047 458.91918945 C-173.74559014 463.75498112 -173.74559014 463.75498112 -178.68701172 462.73168945 C-181.29713239 461.45314276 -183.62114077 460.15205466 -186.06201172 458.60668945 C-187.58089093 457.67983882 -189.1004623 456.75412183 -190.62060547 455.8293457 C-191.4364209 455.32806152 -192.25223633 454.82677734 -193.09277344 454.31030273 C-197.73074392 451.48806321 -202.43072408 448.77220933 -207.12451172 446.04418945 C-208.13497559 445.45492676 -209.14543945 444.86566406 -210.18652344 444.25854492 C-218.76461677 439.25767618 -227.36585532 434.29734043 -235.96948242 429.34057617 C-248.2236347 422.27681578 -260.43464182 415.13959278 -272.64599609 408.00219727 C-275.61766675 406.26562111 -278.58972399 404.52970921 -281.56201172 402.79418945 C-282.53904053 402.2235376 -283.51606934 401.65288574 -284.52270508 401.06494141 C-290.98994832 397.29216271 -297.47130172 393.54487179 -303.96728516 389.82177734 C-306.21604957 388.52482229 -308.45780442 387.215627 -310.69189453 385.89355469 C-317.26157693 382.00362053 -317.26157693 382.00362053 -324.21435547 378.88793945 C-328.21664591 377.1844673 -330.2073474 376.32744535 -332.68701172 372.73168945 C-334.5085683 364.08597524 -335.3669849 352.2450447 -330.74560547 344.4621582 C-328.68701172 342.73168945 -328.68701172 342.73168945 -326.68701172 342.73168945 C-326.7225415 341.87948318 -326.75807129 341.02727692 -326.79467773 340.14924622 C-329.8653782 262.87774746 -329.8653782 262.87774746 -312.80371094 226.4128418 C-310.64083254 221.74050195 -308.8459228 216.97744055 -307.12841797 212.1262207 C-306.85816803 211.3666507 -306.58791809 210.60708069 -306.30947876 209.82449341 C-305.78667389 208.35056523 -305.26498327 206.87624127 -304.74450684 205.40148926 C-299.8913702 191.67386387 -296.4525755 184.73924328 -283.37451172 177.73168945 C-281.30847565 176.59536133 -279.24340259 175.45728088 -277.17919922 174.31762695 C-276.11282227 173.73207031 -275.04644531 173.14651367 -273.94775391 172.54321289 C-268.58371098 169.56318904 -263.29213687 166.46127153 -257.99951172 163.35668945 C-257.04584717 162.79852539 -256.09218262 162.24036133 -255.10961914 161.6652832 C-254.1825415 161.12258789 -253.25546387 160.57989258 -252.30029297 160.02075195 C-251.39230957 159.48998047 -250.48432617 158.95920898 -249.54882812 158.41235352 C-247.48945885 157.20294402 -245.43502156 155.98512208 -243.38378906 154.76196289 C-242.30178223 154.12033203 -241.21977539 153.47870117 -240.10498047 152.81762695 C-239.11651123 152.22771973 -238.12804199 151.6378125 -237.10961914 151.0300293 C-234.68701172 149.73168945 -234.68701172 149.73168945 -232.68701172 149.73168945 C-232.73341797 148.68110352 -232.77982422 147.63051758 -232.82763672 146.5480957 C-233.30393104 131.40590546 -233.30393104 131.40590546 -228.68701172 124.73168945 C-223.07820651 118.78697607 -216.319623 115.00259241 -209.18701172 111.16918945 C-206.9437525 109.93937148 -204.70159108 108.70754924 -202.46044922 107.47387695 C-200.76227051 106.54140137 -200.76227051 106.54140137 -199.02978516 105.59008789 C-193.9073655 102.7423039 -188.86023566 99.77090372 -183.81201172 96.79418945 C-174.21079974 91.15046912 -164.50475805 85.71763696 -154.75390625 80.33740234 C-147.3378532 76.23441923 -139.99185997 72.02922966 -132.68701172 67.73168945 C-123.12754309 62.10772584 -113.46406488 56.69513744 -103.75341797 51.3371582 C-96.33754855 47.23422014 -88.99170305 43.02913734 -81.68701172 38.73168945 C-72.14002135 33.11506696 -62.49042056 27.70715102 -52.79077148 22.35913086 C-44.018494 17.50837622 -35.34560241 12.50310515 -26.72607422 7.38598633 C-24.05903737 5.81103883 -21.37976006 4.26221967 -18.68701172 2.73168945 C-17.79900879 2.22283203 -16.91100586 1.71397461 -15.99609375 1.18969727 C-14.70034424 0.48731934 -14.70034424 0.48731934 -13.37841797 -0.22924805 C-12.61859619 -0.6473877 -11.85877441 -1.06552734 -11.07592773 -1.49633789 C-6.96677267 -2.82420179 -3.81720276 -1.80177797 0 0 Z " fill="#E7E7E7" transform="translate(342.68701171875,25.268310546875)"/>
<path d="M0 0 C1.83727184 1.24660737 3.63541125 2.53717656 5.43017578 3.84423828 C9.57229095 6.69638857 14.03734576 9.01184955 18.4375 11.4375 C27.46845216 16.51879923 36.43334245 21.7082773 45.37524414 26.94433594 C52.68918664 31.22607046 60.02738828 35.46385219 67.375 39.6875 C77.39753257 45.45283257 87.35099815 51.32720997 97.28491211 57.24365234 C106.73667743 62.85762723 116.26717204 68.32501965 125.83740234 73.73413086 C127.94033992 74.92648426 130.03524702 76.13318102 132.11952686 77.35785675 C134.36425628 78.63223358 136.65223404 79.83404252 138.98056316 80.94837189 C147.83300224 85.51741837 147.83300224 85.51741837 149.75243568 90.24058533 C150.20576983 93.8477175 150.23782357 97.2544877 150.13012695 100.88867188 C150.1363317 102.24947726 150.14825813 103.61026667 150.16543579 104.97097778 C150.19576217 108.64578856 150.146579 112.31565106 150.08255029 115.98986626 C150.02922159 119.83626923 150.0497631 123.68228008 150.06230164 127.52893066 C150.07487642 134.80394265 150.02150143 142.07689959 149.94413012 149.35145044 C149.85924061 157.63685996 149.84832341 165.92185794 149.84346449 174.20764065 C149.83182516 191.24346191 149.72779578 208.27749076 149.5625 225.3125 C153.48283642 223.12560259 157.40168932 220.93605935 161.3203125 218.74609375 C162.4131958 218.13648804 163.5060791 217.52688232 164.63208008 216.89880371 C171.95027009 212.80683979 179.2127425 208.62963299 186.4375 204.375 C196.04111814 198.73858242 205.7419154 193.30043297 215.49121094 187.92041016 C223.95001812 183.24006413 232.3108664 178.41063666 240.64453125 173.51171875 C247.7341117 169.35349719 254.88056248 165.3088423 262.0625 161.3125 C271.48901214 156.06646668 280.83749108 150.70159551 290.1340332 145.22851562 C294.53988706 142.6387 298.94975278 140.07599266 303.4453125 137.64453125 C304.18064209 137.24468018 304.91597168 136.8448291 305.67358398 136.43286133 C306.9952662 135.71972791 308.3224199 135.01657746 309.65649414 134.3269043 C314.00010815 131.97960686 316.50426603 129.1340533 319.5625 125.3125 C326.09483141 119.81108225 332.85330035 114.46583901 341.62109375 114.1015625 C347.56248019 113.48196422 351.97510951 110.6869852 357 107.625 C357.87720703 107.10744141 358.75441406 106.58988281 359.65820312 106.05664062 C363.25207961 103.9299768 366.82259667 101.76767714 370.37939453 99.57958984 C371.2764209 99.03125488 372.17344727 98.48291992 373.09765625 97.91796875 C373.90726807 97.4180542 374.71687988 96.91813965 375.55102539 96.40307617 C377.5625 95.3125 377.5625 95.3125 379.5625 95.3125 C379.5625 93.9925 379.5625 92.6725 379.5625 91.3125 C384.4375 93.1875 384.4375 93.1875 385.5625 94.3125 C385.89997006 98.1993862 385.88764983 102.10035709 385.9375 106 C385.97488281 107.08990234 386.01226562 108.17980469 386.05078125 109.30273438 C386.14995273 118.35488636 386.14995273 118.35488636 383.609375 121.8125 C380.46272452 124.39436706 377.56947754 125.90406019 373.8737793 127.53076172 C366.64889204 130.61165286 366.64889204 130.61165286 361.51806641 136.23486328 C360.23986477 140.50187471 360.03109485 144.87242272 359.76416016 149.29833984 C358.42106505 162.71303067 346.55004611 177.95992585 336.5625 186.3125 C328.52401646 192.28983392 320.62361997 194.71579444 310.5625 193.3125 C305.32976947 191.27630157 300.75897996 188.19824047 296.25390625 184.88671875 C292.76558169 182.4336833 289.64255821 180.63974785 285.5625 179.3125 C280.96184137 180.12571902 277.54488435 182.35663929 273.72460938 184.90380859 C270.38053231 187.08259412 266.90843499 189.03018587 263.44775391 191.01660156 C260.34137722 192.80535051 257.25172406 194.6205627 254.1640625 196.44140625 C247.41191282 200.41260632 240.6177023 204.30812535 233.8125 208.1875 C232.6313427 208.86123806 231.45019038 209.53498485 230.26904297 210.20874023 C227.88858453 211.5663362 225.50783659 212.92342303 223.12695312 214.28027344 C217.84982077 217.28820281 212.57667663 220.30311024 207.30325317 223.3175354 C204.41463044 224.96858933 201.52563174 226.61898527 198.63671875 228.26953125 C194.3657559 230.70985114 190.09550457 233.15141035 185.82595825 235.59420776 C183.28655759 237.04705358 180.74692493 238.49949359 178.20727539 239.9519043 C177.00631353 240.63887689 175.80546312 241.32604435 174.60473633 242.01342773 C172.93079161 242.97169871 171.25641744 243.92921937 169.58203125 244.88671875 C168.55577637 245.48081543 167.52952148 246.07491211 166.47216797 246.68701172 C164.62216918 247.72051499 162.74203136 248.7030249 160.82861328 249.61376953 C155.78176329 251.99832295 155.78176329 251.99832295 153.203125 256.84375 C153.00976562 258.80828125 153.00976562 258.80828125 152.8125 260.8125 C152.62272376 262.24607334 152.42335174 263.67840612 152.21484375 265.109375 C152.06571533 266.17381836 152.06571533 266.17381836 151.91357422 267.25976562 C149.32360418 282.40334564 139.03840901 295.65841101 127.5625 305.3125 C120.25788441 310.18864286 113.47536957 313.1891757 104.5625 312.3125 C99.60578225 310.43078308 95.09634947 307.64318889 90.57421875 304.90625 C89.87159912 304.48980225 89.16897949 304.07335449 88.44506836 303.64428711 C87.04267822 302.80959606 85.65099325 301.95660232 84.27172852 301.08422852 C81.09636152 299.1964377 79.40722206 298.19720685 75.671875 298.70703125 C70.47838605 301.38859401 65.51202461 304.41368998 60.55078125 307.5 C52.50392158 312.33579166 52.50392158 312.33579166 47.5625 311.3125 C44.95237933 310.03395331 42.62837095 308.7328652 40.1875 307.1875 C38.66862079 306.26064937 37.14904942 305.33493237 35.62890625 304.41015625 C34.81309082 303.90887207 33.99727539 303.40758789 33.15673828 302.89111328 C28.5187678 300.06887376 23.81878764 297.35301988 19.125 294.625 C18.11453613 294.0357373 17.10407227 293.44647461 16.06298828 292.83935547 C7.48489495 287.83848673 -1.1163436 282.87815098 -9.7199707 277.92138672 C-21.97412298 270.85762633 -34.1851301 263.72040333 -46.39648438 256.58300781 C-49.36815503 254.84643165 -52.34021227 253.11051976 -55.3125 251.375 C-56.77804321 250.51902222 -56.77804321 250.51902222 -58.27319336 249.64575195 C-64.7404366 245.87297326 -71.22179 242.12568233 -77.71777344 238.40258789 C-79.96653786 237.10563283 -82.2082927 235.79643755 -84.44238281 234.47436523 C-91.01206521 230.58443108 -91.01206521 230.58443108 -97.96484375 227.46875 C-101.96713419 225.76527785 -103.95783568 224.90825589 -106.4375 221.3125 C-108.25905659 212.66678578 -109.11747318 200.82585524 -104.49609375 193.04296875 C-102.4375 191.3125 -102.4375 191.3125 -100.4375 191.3125 C-100.47302979 190.46029373 -100.50855957 189.60808746 -100.54516602 188.73005676 C-103.61586648 111.45855801 -103.61586648 111.45855801 -86.55419922 74.99365234 C-84.39132082 70.3213125 -82.59641109 65.5582511 -80.87890625 60.70703125 C-80.60865631 59.94746124 -80.33840637 59.18789124 -80.05996704 58.40530396 C-79.53716217 56.93137578 -79.01547155 55.45705181 -78.49499512 53.9822998 C-73.64187801 40.25472966 -70.20305384 33.31996999 -57.125 26.3125 C-55.05635187 25.17488434 -52.98867458 24.03550187 -50.921875 22.89453125 C-49.85517578 22.30881348 -48.78847656 21.7230957 -47.68945312 21.11962891 C-43.40932861 18.74113929 -39.17925107 16.28263694 -34.95581055 13.80517578 C-32.91309394 12.60826267 -30.8650966 11.42031368 -28.81176758 10.24169922 C-24.5151728 7.76799874 -20.31359264 5.29817177 -16.30859375 2.37109375 C-10.34228121 -1.8898653 -6.79979966 -3.79917632 0 0 Z " fill="#DC454D" transform="translate(116.4375,176.6875)"/>
<path d="M0 0 C2.28759886 2.29000194 2.9593135 3.67894586 3.36914349 6.91288376 C3.36637811 8.05221989 3.36361273 9.19155602 3.36076355 10.36541748 C3.36694954 12.32995628 3.36694954 12.32995628 3.3732605 14.33418274 C3.36264364 15.78366295 3.35173922 17.23314108 3.34057617 18.68261719 C3.33972987 20.2102812 3.3402051 21.73794644 3.34190369 23.26560974 C3.34276496 27.41204166 3.32511786 31.55821361 3.30418181 35.70458508 C3.28543705 40.03808972 3.28366631 44.37160023 3.28010559 48.70513916 C3.27077865 56.9109431 3.2461561 65.11662723 3.21605712 73.3223784 C3.1825333 82.66447724 3.16603218 92.00658178 3.15097082 101.3487258 C3.1196071 120.56588514 3.066834 139.78293294 3 159 C1.92685547 159.59687622 1.92685547 159.59687622 0.83203125 160.20581055 C-1.86013733 161.70448298 -4.55125139 163.20502805 -7.24169922 164.70678711 C-8.96372892 165.66726938 -10.68693044 166.62564974 -12.41015625 167.58398438 C-17.21289365 170.26621491 -21.98799464 172.94536213 -26.62158203 175.91235352 C-30.00211635 178.00130777 -31.97671686 178.6297408 -35.875 178.9375 C-44.73460994 180.12325588 -51.55815731 185.01828893 -58 191 C-58.5978833 191.8031665 -59.1957666 192.60633301 -59.81176758 193.43383789 C-62.22261847 196.26106691 -64.40242976 197.68830333 -67.63671875 199.49609375 C-69.31942871 200.44669678 -69.31942871 200.44669678 -71.03613281 201.41650391 C-72.25316279 202.09033622 -73.47028762 202.76399724 -74.6875 203.4375 C-75.95072742 204.14667671 -77.21341556 204.85681479 -78.47558594 205.56787109 C-81.69570158 207.37875547 -84.92232773 209.17764431 -88.15155029 210.972229 C-91.99908953 213.11152942 -95.84037634 215.26204039 -99.68286133 217.41040039 C-101.73545559 218.55784682 -103.78868364 219.70416022 -105.8425293 220.84936523 C-113.94784414 225.37916499 -121.96737267 230.0460935 -129.97485352 234.74609375 C-138.2120593 239.56905697 -146.52531529 244.2467535 -154.86206055 248.89501953 C-163.97074776 253.97474136 -173.02993742 259.13698426 -182.07714844 264.32519531 C-187.25259082 267.29074282 -192.43254321 270.24840259 -197.61190796 273.20709229 C-200.49012399 274.85133352 -203.36809882 276.49599679 -206.24609375 278.140625 C-207.34034668 278.76517578 -208.43459961 279.38972656 -209.56201172 280.03320312 C-212.01938111 281.43900968 -214.4740315 282.84897993 -216.92626953 284.26367188 C-217.89355736 284.82027496 -217.89355736 284.82027496 -218.88038635 285.38812256 C-220.12938735 286.10696025 -221.37742003 286.8274836 -222.62437439 287.54986572 C-226.88750809 290 -226.88750809 290 -228 290 C-228.11687962 269.66797376 -228.20501087 249.33601584 -228.25906086 229.00372314 C-228.28482598 219.56275187 -228.3199441 210.12198951 -228.37719727 200.68115234 C-228.42708411 192.45106076 -228.45930332 184.22112051 -228.47044247 175.99088192 C-228.47695232 171.63426412 -228.49221672 167.2780792 -228.52865028 162.92160034 C-228.56269346 158.81753569 -228.57303636 154.71408052 -228.56553841 150.60988808 C-228.56690926 149.10708614 -228.57679261 147.60426294 -228.59602737 146.10158348 C-228.69452017 138.0071397 -228.69753367 131.28631285 -223 125 C-217.98006073 119.98759818 -211.81683531 116.93606138 -205.625 113.5625 C-203.36616413 112.31565427 -201.10837671 111.06690752 -198.8515625 109.81640625 C-197.70719727 109.18234863 -196.56283203 108.54829102 -195.38378906 107.89501953 C-190.21448831 105.00006193 -185.10648077 102.0039618 -180 99 C-165.51655818 90.50222551 -150.84566547 82.34901846 -136.16015625 74.20703125 C-123.34164878 67.09952477 -110.5602258 59.93797032 -97.85107422 52.63671875 C-92.27969968 49.43835474 -86.70227967 46.25055133 -81.125 43.0625 C-80.52712677 42.72066681 -79.92925354 42.37883362 -79.31326294 42.02664185 C-70.4740214 36.97353788 -61.61859321 31.94978733 -52.74951172 26.94921875 C-47.40191445 23.93133253 -42.06362898 20.89777979 -36.734375 17.84765625 C-36.11248291 17.49178436 -35.49059082 17.13591248 -34.84985352 16.76925659 C-31.81621194 15.03281832 -28.78347524 13.29482319 -25.75195312 11.5546875 C-23.55135682 10.29391588 -21.34831673 9.03739787 -19.14257812 7.78564453 C-17.05650869 6.60031887 -14.97695886 5.40344115 -12.90429688 4.19482422 C-11.94072266 3.64455566 -10.97714844 3.09428711 -9.984375 2.52734375 C-9.14100586 2.0387085 -8.29763672 1.55007324 -7.42871094 1.04663086 C-4.65224395 -0.1498623 -2.9854797 -0.51261165 0 0 Z " fill="#BEBEBE" transform="translate(493,113)"/>
<path d="M0 0 C4.875 1.875 4.875 1.875 6 3 C6.33747006 6.8868862 6.32514983 10.78785709 6.375 14.6875 C6.41238281 15.77740234 6.44976562 16.86730469 6.48828125 17.99023438 C6.58745273 27.04238636 6.58745273 27.04238636 4.046875 30.5 C0.90022452 33.08186706 -1.99302246 34.59156019 -5.6887207 36.21826172 C-12.91360796 39.29915286 -12.91360796 39.29915286 -18.04443359 44.92236328 C-19.32263523 49.18937471 -19.53140515 53.55992272 -19.79833984 57.98583984 C-21.14143495 71.40053067 -33.01245389 86.64742585 -43 95 C-51.03848354 100.97733392 -58.93888003 103.40329444 -69 102 C-74.23273053 99.96380157 -78.80352004 96.88574047 -83.30859375 93.57421875 C-86.79691831 91.1211833 -89.91994179 89.32724785 -94 88 C-98.60065863 88.81321902 -102.01761565 91.04413929 -105.83789062 93.59130859 C-109.18196769 95.77009412 -112.65406501 97.71768587 -116.11474609 99.70410156 C-119.22112278 101.49285051 -122.31077594 103.3080627 -125.3984375 105.12890625 C-132.15058718 109.10010632 -138.9447977 112.99562535 -145.75 116.875 C-146.9311573 117.54873806 -148.11230962 118.22248485 -149.29345703 118.89624023 C-151.67391547 120.2538362 -154.05466341 121.61092303 -156.43554688 122.96777344 C-161.71267923 125.97570281 -166.98582337 128.99061024 -172.25924683 132.0050354 C-175.14786956 133.65608933 -178.03686826 135.30648527 -180.92578125 136.95703125 C-185.1967441 139.39735114 -189.46699543 141.83891035 -193.73654175 144.28170776 C-196.27594241 145.73455358 -198.81557507 147.18699359 -201.35522461 148.6394043 C-202.55618647 149.32637689 -203.75703688 150.01354435 -204.95776367 150.70092773 C-206.63170839 151.65919871 -208.30608256 152.61671937 -209.98046875 153.57421875 C-211.00672363 154.16831543 -212.03297852 154.76241211 -213.09033203 155.37451172 C-214.94033082 156.40801499 -216.82046864 157.3905249 -218.73388672 158.30126953 C-223.78073671 160.68582295 -223.78073671 160.68582295 -226.359375 165.53125 C-226.55273438 167.49578125 -226.55273438 167.49578125 -226.75 169.5 C-226.93977624 170.93357334 -227.13914826 172.36590612 -227.34765625 173.796875 C-227.4470752 174.50650391 -227.54649414 175.21613281 -227.64892578 175.94726562 C-230.23889582 191.09084564 -240.52409099 204.34591101 -252 214 C-259.30461559 218.87614286 -266.08713043 221.8766757 -275 221 C-279.95671775 219.11828308 -284.46615053 216.33068889 -288.98828125 213.59375 C-289.69090088 213.17730225 -290.39352051 212.76085449 -291.11743164 212.33178711 C-292.51982178 211.49709606 -293.91150675 210.64410232 -295.29077148 209.77172852 C-298.46613848 207.8839377 -300.15527794 206.88470685 -303.890625 207.39453125 C-309.08411395 210.07609401 -314.05047539 213.10118998 -319.01171875 216.1875 C-327.05857842 221.02329166 -327.05857842 221.02329166 -332 220 C-334.61012067 218.72145331 -336.93412905 217.4203652 -339.375 215.875 C-340.89387921 214.94814937 -342.41345058 214.02243237 -343.93359375 213.09765625 C-344.74940918 212.59637207 -345.56522461 212.09508789 -346.40576172 211.57861328 C-351.0437322 208.75637376 -355.74371236 206.04051988 -360.4375 203.3125 C-361.44796387 202.7232373 -362.45842773 202.13397461 -363.49951172 201.52685547 C-372.07760505 196.52598673 -380.6788436 191.56565098 -389.2824707 186.60888672 C-401.53662298 179.54512633 -413.7476301 172.40790333 -425.95898438 165.27050781 C-428.93065503 163.53393165 -431.90271227 161.79801976 -434.875 160.0625 C-436.34054321 159.20652222 -436.34054321 159.20652222 -437.83569336 158.33325195 C-444.3029366 154.56047326 -450.78429 150.81318233 -457.28027344 147.09008789 C-459.52903786 145.79313283 -461.7707927 144.48393755 -464.00488281 143.16186523 C-470.57456521 139.27193108 -470.57456521 139.27193108 -477.52734375 136.15625 C-481.52963419 134.45277785 -483.52033568 133.59575589 -486 130 C-487.81509641 121.38494792 -488.76486853 109.37465966 -483.93359375 101.73046875 C-483.29550781 101.15941406 -482.65742188 100.58835937 -482 100 C-478.10349994 100.59280311 -475.23886701 101.76674508 -471.81640625 103.703125 C-470.81810791 104.26443115 -469.81980957 104.8257373 -468.79125977 105.40405273 C-467.19302368 106.31779663 -467.19302368 106.31779663 -465.5625 107.25 C-464.44866943 107.88043213 -463.33483887 108.51086426 -462.18725586 109.16040039 C-454.19962552 113.69858173 -446.27342838 118.3369194 -438.37866211 123.03442383 C-431.32808391 127.22865603 -424.23572157 131.34614064 -417.125 135.4375 C-403.73117172 143.14619237 -390.38288663 150.9313227 -377.04101562 158.72949219 C-374.06934495 160.46606836 -371.09730485 162.20200951 -368.125 163.9375 C-367.15522217 164.50380127 -366.18544434 165.07010254 -365.1862793 165.65356445 C-359.73782631 168.83149295 -354.2816638 171.99561959 -348.81640625 175.14453125 C-348.21918762 175.48866562 -347.62196899 175.83279999 -347.00665283 176.18736267 C-344.10132207 177.86098914 -341.19501527 179.53287989 -338.28759766 181.20288086 C-336.7279126 182.10018921 -336.7279126 182.10018921 -335.13671875 183.015625 C-334.21592529 183.54446289 -333.29513184 184.07330078 -332.34643555 184.61816406 C-330.52937233 185.68824811 -328.75458054 186.83027964 -327 188 C-323.02071567 187.66261153 -320.08071524 186.14186335 -316.640625 184.19140625 C-315.61509521 183.61390625 -314.58956543 183.03640625 -313.53295898 182.44140625 C-312.44958252 181.82136719 -311.36620605 181.20132813 -310.25 180.5625 C-309.13633057 179.93085938 -308.02266113 179.29921875 -306.87524414 178.6484375 C-303.57861508 176.77401885 -300.28847086 174.88868678 -297 173 C-295.66267822 172.23598877 -295.66267822 172.23598877 -294.29833984 171.45654297 C-280.27847417 163.48781879 -280.27847417 163.48781879 -268.125 153 C-262.00741493 146.70142129 -253.81164542 141.21208034 -244.875 140.76171875 C-238.71497905 140.16579263 -234.16267604 137.02500286 -229 133.8125 C-226.86978965 132.52778977 -224.73823589 131.24530492 -222.60546875 129.96484375 C-221.51540527 129.30597168 -220.4253418 128.64709961 -219.30224609 127.96826172 C-214.03316848 124.82769513 -208.67565269 121.85110639 -203.3125 118.875 C-193.12291581 113.19685872 -182.98033493 107.44243889 -172.86132812 101.63964844 C-167.38985222 98.50428733 -161.91325642 95.37787732 -156.4375 92.25 C-146.53694548 86.59461463 -146.53694548 86.59461463 -136.64134216 80.93057251 C-133.69881899 79.24464043 -130.75579528 77.55958372 -127.8125 75.875 C-126.94194473 75.37670685 -126.94194473 75.37670685 -126.05380249 74.86834717 C-118.8454605 70.74445776 -111.61840554 66.65598882 -104.36499023 62.61181641 C-99.23692837 59.75257727 -94.11762706 56.87786359 -89 54 C-87.89914062 53.38286133 -86.79828125 52.76572266 -85.6640625 52.12988281 C-82.35180037 50.26625727 -79.0498248 48.38554255 -75.75 46.5 C-74.74356445 45.93651855 -73.73712891 45.37303711 -72.70019531 44.79248047 C-67.31013919 41.68796379 -63.74338626 38.9393779 -60 34 C-53.46766859 28.49858225 -46.70919965 23.15333901 -37.94140625 22.7890625 C-32.00001981 22.16946422 -27.58739049 19.3744852 -22.5625 16.3125 C-21.24668945 15.53616211 -21.24668945 15.53616211 -19.90429688 14.74414062 C-16.31042039 12.6174768 -12.73990333 10.45517714 -9.18310547 8.26708984 C-8.2860791 7.71875488 -7.38905273 7.17041992 -6.46484375 6.60546875 C-5.65523193 6.1055542 -4.84562012 5.60563965 -4.01147461 5.09057617 C-2 4 -2 4 0 4 C0 2.68 0 1.36 0 0 Z " fill="#464545" transform="translate(496,268)"/>
<path d="M0 0 C3.11562056 1.77609029 5.49558802 3.63994273 8.13525391 6.02832031 C12.01678035 9.19336252 16.55914522 11.35893923 20.94921875 13.734375 C22.95326884 14.85970347 24.95453518 15.99000236 26.953125 17.125 C27.9652002 17.69927734 28.97727539 18.27355469 30.02001953 18.86523438 C36.00085095 22.2806668 41.94365908 25.76102425 47.88696289 29.24121094 C55.20090539 33.52294546 62.53910703 37.76072719 69.88671875 41.984375 C79.90925132 47.74970757 89.8627169 53.62408497 99.79663086 59.54052734 C109.24839618 65.15450223 118.77889079 70.62189465 128.34912109 76.03100586 C136.03561607 80.38920388 143.57849828 84.93280744 151.07421875 89.609375 C149.07662512 91.73867393 147.17994184 93.27503179 144.6328125 94.6953125 C143.63217773 95.25605469 143.63217773 95.25605469 142.61132812 95.828125 C141.91845703 96.2096875 141.22558594 96.59125 140.51171875 96.984375 C139.84591797 97.35820312 139.18011719 97.73203125 138.49414062 98.1171875 C134.81016431 100.16813332 131.09128787 102.10630704 127.3046875 103.9609375 C121.36109091 106.90790183 115.66408546 110.24515158 109.94921875 113.609375 C108.91667969 114.21265625 107.88414062 114.8159375 106.8203125 115.4375 C102.3200955 118.07456984 97.84947493 120.73349204 93.45703125 123.546875 C90.07421875 125.609375 90.07421875 125.609375 88.07421875 125.609375 C87.70296875 126.785 87.70296875 126.785 87.32421875 127.984375 C86.07421875 130.609375 86.07421875 130.609375 84.26416016 131.90600586 C82.07421875 132.609375 82.07421875 132.609375 80.01318359 131.88110352 C79.27793457 131.42147217 78.54268555 130.96184082 77.78515625 130.48828125 C76.93969238 129.97273682 76.09422852 129.45719238 75.22314453 128.92602539 C74.30774902 128.34715576 73.39235352 127.76828613 72.44921875 127.171875 C70.45546096 125.95143441 68.46062438 124.73275483 66.46484375 123.515625 C65.41876953 122.87238281 64.37269531 122.22914063 63.29492188 121.56640625 C57.98454013 118.3396006 52.59104426 115.25996462 47.19921875 112.171875 C33.80372798 104.46610111 20.45708191 96.67803858 7.11523438 88.87988281 C-5.29272199 81.62895775 -17.71934919 74.4121248 -30.17260742 67.23925781 C-38.83259268 62.24820508 -47.47101356 57.22088567 -56.09960938 52.17578125 C-61.02768338 49.29506993 -65.96327076 46.43038719 -70.92578125 43.609375 C-65.5868344 32.0029688 -51.99907364 27.08412437 -41.29833984 21.11132812 C-34.99256683 17.57804767 -28.82642728 13.95029607 -22.8046875 9.94921875 C-6.64047332 -0.66074361 -6.64047332 -0.66074361 0 0 Z " fill="#EE5A5A" transform="translate(113.92578125,174.390625)"/>
<path d="M0 0 C7.72360278 3.6874877 15.04526901 7.90172659 22.375 12.3125 C24.77672883 13.74932022 27.18080825 15.18216124 29.5859375 16.61328125 C30.19870544 16.97793488 30.81147339 17.3425885 31.44281006 17.71829224 C37.91576866 21.56005229 44.4541735 25.28424644 51 29 C60.22433673 34.23922697 69.38693644 39.56837271 78.5 45 C87.67757731 50.46894488 96.90247711 55.84152989 106.1875 61.125 C115.19193007 66.24898152 124.17705844 71.40285835 133.125 76.625 C134.55428833 77.45862061 134.55428833 77.45862061 136.01245117 78.30908203 C138.67818676 79.86751207 141.34249712 81.42755819 144 83 C144.83105255 83.30203339 145.6621051 83.60406677 146.51834106 83.91525269 C149.68776665 85.2856144 151.65709055 86.44304755 154 89 C155.44251813 94.80268402 155.16579128 100.48779646 154.9765625 106.4296875 C154.95789799 108.14742917 154.94366961 109.86522428 154.9336853 111.58303833 C154.8956033 116.09228964 154.79747517 120.59829052 154.68664551 125.10626221 C154.58412133 129.71101911 154.53862902 134.31630438 154.48828125 138.921875 C154.38121307 147.94934056 154.21067537 156.97439945 154 166 C150.20869126 164.52122382 146.76306168 162.82498817 143.23046875 160.796875 C142.10688965 160.15355225 140.98331055 159.51022949 139.82568359 158.84741211 C138.61288279 158.14840128 137.40015681 157.44926061 136.1875 156.75 C134.92540022 156.0252852 133.66319169 155.30075976 132.40087891 154.57641602 C123.5586574 149.49707067 114.74381366 144.37094896 105.94213867 139.22167969 C98.64429155 134.95277433 91.32652007 130.71948457 84 126.5 C72.63248125 119.9511738 61.29436251 113.35320064 49.96777344 106.73388672 C46.10605809 104.47772495 42.24281373 102.2241898 38.37939453 99.97094727 C36.37316865 98.80086624 34.3754283 97.61569241 32.39738464 96.39857483 C27.24526879 93.28125936 22.31359802 90.64088293 16.63305664 88.6184082 C9.70798277 85.90288067 3.60204596 83.02414817 -1 77 C-5.35599113 66.05744554 -3.39208288 52.33058401 -2.70623779 40.86627197 C-2.46587493 36.3867452 -2.37060841 31.90417908 -2.25976562 27.41992188 C-2.07772033 20.89843347 -1.84504747 14.38267163 -1.49438477 7.86791992 C-1.42421646 6.56223557 -1.35404816 5.25655121 -1.28175354 3.91130066 C-1 1 -1 1 0 0 Z " fill="#EE5A5A" transform="translate(17,291)"/>
<path d="M0 0 C3.63260345 1.36472823 6.90961407 2.9980116 10.26171875 4.94921875 C11.28450928 5.54210693 12.3072998 6.13499512 13.36108398 6.74584961 C14.45880127 7.38659424 15.55651855 8.02733887 16.6875 8.6875 C17.8501458 9.36304902 19.01299129 10.03825447 20.17602539 10.71313477 C21.98146491 11.76096302 23.78669998 12.80913238 25.59117126 13.85862732 C29.56981155 16.17252837 33.55562915 18.47350261 37.546875 20.765625 C48.5370481 27.07832539 59.4844981 33.45421231 70.375 39.9375 C81.99183815 46.85174216 93.70364827 53.58431127 105.453125 60.26953125 C113.9970652 65.13086805 122.50141223 70.0599342 131 75 C130.29685497 79.11427012 129.07132604 82.88339486 127.671875 86.8125 C127.44099182 87.4626709 127.21010864 88.1128418 126.972229 88.78271484 C126.48295351 90.1582958 125.99201289 91.53328548 125.49951172 92.90771484 C124.76273001 94.96446379 124.03129248 97.02304801 123.30078125 99.08203125 C120.32655418 107.43883974 117.22919739 115.73778193 114 124 C104.85932489 119.61982563 96.19837121 114.66566478 87.49755859 109.48193359 C82.86687713 106.73430539 78.21408482 104.02453873 73.5625 101.3125 C72.55155273 100.72275391 71.54060547 100.13300781 70.49902344 99.52539062 C61.92077618 94.52611163 53.32058017 89.565319 44.7175293 84.60888672 C35.46222567 79.27377698 26.23032263 73.89937479 17.0078125 68.5078125 C12.77840189 66.03564295 8.54323404 63.57365961 4.3046875 61.1171875 C3.20785645 60.48047119 2.11102539 59.84375488 0.98095703 59.18774414 C-1.1236933 57.96620725 -3.22943465 56.74654761 -5.33642578 55.52905273 C-6.28243652 54.97934814 -7.22844727 54.42964355 -8.203125 53.86328125 C-9.03489258 53.38157471 -9.86666016 52.89986816 -10.72363281 52.40356445 C-12.92198032 51.04810544 -14.96169492 49.58375485 -17 48 C-15.76382819 41.72064052 -14.02054474 35.83240951 -11.77734375 29.84375 C-11.47180069 29.01540649 -11.16625763 28.18706299 -10.85145569 27.33361816 C-10.21125784 25.60160091 -9.56827646 23.87061013 -8.92260742 22.140625 C-7.93063597 19.48160067 -6.94806576 16.81924022 -5.96679688 14.15625 C-5.34168802 12.46854908 -4.7160561 10.78104179 -4.08984375 9.09375 C-3.64764748 7.89703674 -3.64764748 7.89703674 -3.19651794 6.67614746 C-1.1162094 1.1162094 -1.1162094 1.1162094 0 0 Z " fill="#39404C" transform="translate(55,236)"/>
<path d="M0 0 C3.56904188 1.35305649 6.8542833 2.93689098 10.18359375 4.80078125 C11.18189209 5.35886475 12.18019043 5.91694824 13.20874023 6.49194336 C14.27423096 7.09272705 15.33972168 7.69351074 16.4375 8.3125 C17.55133057 8.93842041 18.66516113 9.56434082 19.81274414 10.20922852 C27.80813962 14.7200195 35.73276192 19.34012926 43.62133789 24.03466797 C50.67215648 28.22841177 57.76431318 32.34616064 64.875 36.4375 C78.26882828 44.14619237 91.61711337 51.9313227 104.95898438 59.72949219 C107.93065505 61.46606836 110.90269515 63.20200951 113.875 64.9375 C114.84477783 65.50380127 115.81455566 66.07010254 116.8137207 66.65356445 C122.26217369 69.83149295 127.7183362 72.99561959 133.18359375 76.14453125 C133.78081238 76.48866562 134.37803101 76.83279999 134.99334717 77.18736267 C137.89867793 78.86098914 140.80498473 80.53287989 143.71240234 82.20288086 C145.2720874 83.10018921 145.2720874 83.10018921 146.86328125 84.015625 C147.78407471 84.54446289 148.70486816 85.07330078 149.65356445 85.61816406 C151.47062767 86.68824811 153.24541946 87.83027964 155 89 C154.33550589 95.14050287 152.08329943 100.68157259 149.95703125 106.43359375 C149.55095139 107.5437233 149.14487152 108.65385284 148.72648621 109.79762268 C147.86562775 112.14781088 147.00222904 114.49706994 146.13647461 116.84545898 C144.82940095 120.39164648 143.53021072 123.94063988 142.23242188 127.49023438 C137.99060043 139.06381029 133.69765577 150.60258384 129 162 C125.81478834 161.3495786 123.34916758 160.2229883 120.52734375 158.62109375 C119.64216064 158.12053467 118.75697754 157.61997559 117.8449707 157.10424805 C116.88550537 156.55422119 115.92604004 156.00419434 114.9375 155.4375 C113.92453857 154.86104736 112.91157715 154.28459473 111.86791992 153.69067383 C102.98621839 148.61396552 94.19155873 143.39351301 85.40405273 138.15600586 C77.32108982 133.34441274 69.17919509 128.64585107 61 124 C50.6500788 118.12046898 40.38851852 112.10749911 30.16430664 106.01098633 C21.39004337 100.79172975 12.53913349 95.71935736 3.66149902 90.67919922 C-6.35461049 84.98840234 -16.22869747 79.10060158 -26 73 C-23.90521866 64.66984544 -21.1812011 56.67736781 -18.18359375 48.6328125 C-17.726465 47.39506073 -17.26933624 46.15730896 -16.7983551 44.88204956 C-15.59499643 41.62417762 -14.38597668 38.36843549 -13.17578125 35.11309814 C-12.18876932 32.45519969 -11.20578618 29.79582007 -10.22300625 27.13635445 C-8.18855882 21.63119116 -6.1509722 16.12718858 -4.10717773 10.62548828 C-3.74760483 9.65717072 -3.38803192 8.68885315 -3.01756287 7.69119263 C-2.04310122 5.11399167 -1.03241509 2.55446761 0 0 Z M12 18 C8.21119131 26.83275333 4.75046911 35.76318079 1.44091797 44.78466797 C0.89104159 46.27765968 0.33624578 47.7688476 -0.22314453 49.25830078 C-1.04214044 51.43928642 -1.84685498 53.62506393 -2.6484375 55.8125 C-2.90039886 56.47604492 -3.15236023 57.13958984 -3.41195679 57.82324219 C-4.32021734 60.34177717 -5.00791006 62.54897921 -4.96069336 65.24121094 C-3.51137271 67.89455426 -1.58369381 68.82412794 1.01953125 70.328125 C2.09033936 70.95477051 3.16114746 71.58141602 4.2644043 72.22705078 C5.44693742 72.90165728 6.62964082 73.57596537 7.8125 74.25 C9.03421297 74.95843388 10.25531373 75.66792449 11.47583008 76.37841797 C14.67271756 78.23450419 17.87871466 80.07416304 21.08850098 81.90783691 C22.93868441 82.96496644 24.78745786 84.02451517 26.63574219 85.08496094 C31.90895951 88.10947971 37.18685444 91.12564133 42.47038269 94.1321106 C52.38277902 99.77391798 62.23072098 105.52406319 72.07324219 111.28662109 C77.0050806 114.17381178 81.93955989 117.05647121 86.875 119.9375 C87.84276367 120.50243164 88.81052734 121.06736328 89.80761719 121.64941406 C101.51368586 128.47570567 113.25614405 135.23899237 125 142 C127.13327951 139.86672049 127.67810646 138.57551065 128.69580078 135.78149414 C129.01598175 134.91041519 129.33616272 134.03933624 129.66604614 133.14186096 C130.17553299 131.72779213 130.17553299 131.72779213 130.6953125 130.28515625 C131.04761932 129.31847519 131.39992615 128.35179413 131.76290894 127.3558197 C132.50694829 125.30990234 133.24817618 123.26296069 133.98681641 121.21508789 C135.12011208 118.07603877 136.26445966 114.94118181 137.41015625 111.80664062 C138.13087488 109.82055425 138.85094871 107.83423375 139.5703125 105.84765625 C139.91401886 104.90696793 140.25772522 103.9662796 140.61184692 102.99708557 C140.92572357 102.12285446 141.23960022 101.24862335 141.56298828 100.34790039 C141.98029709 99.19445885 141.98029709 99.19445885 142.40603638 98.01771545 C143.14119647 95.87090445 143.14119647 95.87090445 143 93 C141.93193115 92.39079712 141.93193115 92.39079712 140.84228516 91.76928711 C117.89600958 78.67783691 94.96089345 65.57590324 72.26123047 52.05957031 C63.49564947 46.85362254 54.66126651 41.77844338 45.7947998 36.74685669 C37.0621598 31.79006101 28.41192112 26.71773481 19.86157227 21.45214844 C19.11061279 20.99356445 18.35965332 20.53498047 17.5859375 20.0625 C16.9367334 19.66160156 16.2875293 19.26070312 15.61865234 18.84765625 C14.00923575 17.84536096 14.00923575 17.84536096 12 18 Z " fill="#BA2C3B" transform="translate(43,218)"/>
<path d="M0 0 C3.89650006 0.59280311 6.76113299 1.76674508 10.18359375 3.703125 C11.68104126 4.54508423 11.68104126 4.54508423 13.20874023 5.40405273 C14.80697632 6.31779663 14.80697632 6.31779663 16.4375 7.25 C17.55133057 7.88043213 18.66516113 8.51086426 19.81274414 9.16040039 C27.80037448 13.69858173 35.72657162 18.3369194 43.62133789 23.03442383 C50.67191609 27.22865603 57.76427843 31.34614064 64.875 35.4375 C78.26882828 43.14619237 91.61711337 50.9313227 104.95898438 58.72949219 C107.93065496 60.46606831 110.9027836 62.20185825 113.875 63.9375 C114.84622803 64.50525146 115.81745605 65.07300293 116.81811523 65.65795898 C122.23626915 68.82080911 127.66700955 71.96014175 133.11328125 75.07421875 C134.30553113 75.75719076 135.49775142 76.44021444 136.68994141 77.12329102 C138.96955254 78.42930261 141.25210466 79.7296315 143.53662109 81.02709961 C145.08663818 81.91473999 145.08663818 81.91473999 146.66796875 82.8203125 C147.57828857 83.33867676 148.4886084 83.85704102 149.42651367 84.39111328 C152.12883353 86.08054387 154.55108664 87.96415968 157 90 C156.195625 90.61875 155.39125 91.2375 154.5625 91.875 C151.96125481 93.74164041 151.96125481 93.74164041 151 96 C150.91550372 97.7404417 150.89276976 99.48409722 150.90234375 101.2265625 C150.90556641 102.2578125 150.90878906 103.2890625 150.91210938 104.3515625 C150.92048828 105.43179688 150.92886719 106.51203125 150.9375 107.625 C150.94426758 109.25695312 150.94426758 109.25695312 150.95117188 110.921875 C150.96298224 113.61463789 150.97945222 116.30729188 151 119 C144.81839604 117.37162446 139.68897773 114.0576377 134.25 110.8125 C132.08505648 109.53444273 129.91967709 108.25712356 127.75390625 106.98046875 C126.63773926 106.32095215 125.52157227 105.66143555 124.37158203 104.98193359 C118.99930677 101.82392269 113.59211855 98.72720995 108.1875 95.625 C99.29056268 90.50796382 90.44351943 85.31341693 81.625 80.0625 C72.40470465 74.57438792 63.13754541 69.18242338 53.8125 63.875 C31.90578136 51.4046199 31.90578136 51.4046199 24.56762695 46.9831543 C19.82220119 44.133968 15.13851641 41.55557849 10.0625 39.33984375 C-0.70135836 34.37595537 -0.70135836 34.37595537 -4 30 C-6.47770683 22.12633897 -6.02453284 12.95417132 -4 5 C-1.90625 1.74609375 -1.90625 1.74609375 0 0 Z " fill="#686767" transform="translate(14,368)"/>
<path d="M0 0 C5.85446056 1.57840848 10.6148861 4.57116631 15.75 7.6875 C17.72579225 8.87107843 19.70238848 10.05331553 21.6796875 11.234375 C22.71319336 11.85248047 23.74669922 12.47058594 24.81152344 13.10742188 C30.13671458 16.26828571 35.50586104 19.35207448 40.875 22.4375 C54.26928083 30.14539878 67.61711953 37.9313263 80.95898438 45.72949219 C93.59161238 53.1117102 106.24138037 60.46290676 118.92138672 67.76342773 C125.03597415 71.28470098 131.13808243 74.82605162 137.22583008 78.39355469 C146.36308659 83.70680112 146.36308659 83.70680112 156 88 C155.57847656 88.51304687 155.15695312 89.02609375 154.72265625 89.5546875 C148.78088864 97.85918153 149.02143919 106.1594126 149 116 C140.34669703 112.00195495 132.21821703 107.2485519 124.04003906 102.37207031 C116.77080279 98.0386269 109.46141342 93.78115658 102.125 89.5625 C88.73095162 81.85419349 75.38288366 74.06867557 62.04101562 66.27050781 C59.06934496 64.53393165 56.097297 62.79800391 53.125 61.0625 C52.14289551 60.48894775 51.16079102 59.91539551 50.14892578 59.32446289 C43.80376324 55.62320412 37.44355535 51.94896195 31.07543945 48.28735352 C21.82246834 42.96626676 12.59293877 37.61259736 3.4375 32.125 C2.59219727 31.61888184 1.74689453 31.11276367 0.87597656 30.59130859 C-4.87019947 27.12980053 -4.87019947 27.12980053 -6 26 C-6.66584991 17.4421913 -6.85223031 9.42001642 -2 2 C-1.34 1.34 -0.68 0.68 0 0 Z " fill="#D7D6D6" transform="translate(116,148)"/>
<path d="M0 0 C0 17.16 0 34.32 0 52 C-3.75375 54.165625 -7.5075 56.33125 -11.375 58.5625 C-12.63634766 59.29025635 -13.89769531 60.0180127 -15.19726562 60.76782227 C-20.58133414 63.87422793 -25.96553221 66.98040695 -31.35067749 70.08494568 C-33.08100688 71.08249722 -34.81125569 72.08018852 -36.54150391 73.07788086 C-38.69989383 74.32242486 -40.85841403 75.56674296 -43.01708984 76.81079102 C-44.01949707 77.38885498 -45.0219043 77.96691895 -46.0546875 78.5625 C-47.02631836 79.12195313 -47.99794922 79.68140625 -48.99902344 80.2578125 C-51.12353665 81.4911778 -53.24069131 82.73725904 -55.35253906 83.9921875 C-56.4350293 84.63414062 -57.51751953 85.27609375 -58.6328125 85.9375 C-59.6139502 86.52402344 -60.59508789 87.11054688 -61.60595703 87.71484375 C-64 89 -64 89 -66 89 C-65.41706097 82.09288647 -63.03043632 75.94020242 -60.66796875 69.4609375 C-60.23494949 68.26191803 -59.80193024 67.06289856 -59.35578918 65.82754517 C-58.44041132 63.29971924 -57.52222109 60.77313051 -56.59936523 58.24804688 C-55.42143352 55.02316735 -54.25856107 51.7930888 -53.09974194 48.56130028 C-51.98563895 45.46207803 -50.8572797 42.36805753 -49.73046875 39.2734375 C-49.31677536 38.11814545 -48.90308197 36.96285339 -48.47685242 35.77255249 C-47.88152458 34.1552977 -47.88152458 34.1552977 -47.27416992 32.50537109 C-46.93077072 31.56051849 -46.58737152 30.61566589 -46.23356628 29.6421814 C-43.61664321 24.03698162 -40.16343958 21.18846995 -34.8359375 18.22265625 C-34.24382477 17.88882431 -33.65171204 17.55499237 -33.04165649 17.21104431 C-31.1580928 16.15167315 -29.26700485 15.10670671 -27.375 14.0625 C-25.51192046 13.02193737 -23.65051047 11.9784397 -21.78936768 10.93441772 C-20.57696422 10.25524596 -19.36339094 9.57815799 -18.14862061 8.90322876 C-13.67227164 6.40932889 -9.30232888 3.77249359 -4.97509766 1.02905273 C-3 0 -3 0 0 0 Z " fill="#3A414D" transform="translate(251,283)"/>
<path d="M0 0 C1.98 0.99 3.96 1.98 6 3 C4.22169578 9.35292739 2.11843822 15.52890771 -0.171875 21.7109375 C-0.45994019 22.49132385 -0.74800537 23.27171021 -1.0447998 24.07574463 C-2.25197716 27.34188805 -3.4614989 30.60701819 -4.68603516 33.86669922 C-5.58694742 36.26960634 -6.47419278 38.67719929 -7.359375 41.0859375 C-7.63948425 41.82137787 -7.91959351 42.55681824 -8.20819092 43.31454468 C-9.53843781 46.96660417 -10.34552383 49.31025225 -9 53 C-7.13210862 54.52358406 -7.13210862 54.52358406 -4.71484375 55.7421875 C-3.80436279 56.24347168 -2.89388184 56.74475586 -1.95581055 57.26123047 C-0.95976807 57.79377441 0.03627441 58.32631836 1.0625 58.875 C3.18321167 60.03999349 5.30297532 61.20671409 7.421875 62.375 C8.51564453 62.97441406 9.60941406 63.57382812 10.73632812 64.19140625 C15.81041318 67.00325709 20.81138136 69.93590665 25.8125 72.875 C34.12508726 77.74500062 42.46003907 82.57373196 50.8125 87.375 C59.70908883 92.49264795 68.55655321 97.68644 77.375 102.9375 C91.14835577 111.13829017 105.05716878 119.0916986 119 127 C118.67 129.31 118.34 131.62 118 134 C114.33496463 133.31865144 111.54384857 131.74790176 108.328125 129.89453125 C107.20132324 129.24798584 106.07452148 128.60144043 104.91357422 127.93530273 C103.69230012 127.22784455 102.47111086 126.5202399 101.25 125.8125 C99.98343912 125.08306135 98.7166721 124.35398052 97.44970703 123.62524414 C88.59163778 118.52407873 79.7581318 113.38019986 70.93579102 108.2175293 C63.70529227 103.98674676 56.45009583 99.8003941 49.1875 95.625 C39.17324274 89.86433514 29.22356834 84.00184967 19.30395508 78.07983398 C13.27732903 74.49371705 7.22258621 70.97489053 1.109375 67.5390625 C0.13458694 66.98958199 0.13458694 66.98958199 -0.8598938 66.42900085 C-4.01013832 64.65392419 -7.16511128 62.88849176 -10.32958984 61.13891602 C-11.45059082 60.50912842 -12.5715918 59.87934082 -13.7265625 59.23046875 C-15.22050537 58.40131958 -15.22050537 58.40131958 -16.74462891 57.55541992 C-19 56 -19 56 -20 53 C-19.40567017 50.67184448 -19.40567017 50.67184448 -18.38525391 47.90185547 C-18.00801178 46.86423065 -17.63076965 45.82660583 -17.24209595 44.75753784 C-16.82446991 43.63872223 -16.40684387 42.51990662 -15.9765625 41.3671875 C-15.55579437 40.21960968 -15.13502625 39.07203186 -14.70150757 37.88967896 C-13.80953896 35.46213967 -12.91314341 33.03622317 -12.01269531 30.61181641 C-10.62928148 26.88652926 -9.25877534 23.1566977 -7.890625 19.42578125 C-7.02418641 17.07264078 -6.15702347 14.71976686 -5.2890625 12.3671875 C-4.87548492 11.24432343 -4.46190735 10.12145935 -4.03579712 8.96456909 C-3.65225067 7.9332486 -3.26870422 6.9019281 -2.87353516 5.83935547 C-2.5352066 4.92685028 -2.19687805 4.01434509 -1.84829712 3.07418823 C-1 1 -1 1 0 0 Z " fill="#EB5858" transform="translate(49,232)"/>
<path d="M0 0 C3.07061968 1.71368609 5.40450726 3.80901452 7 7 C8.11424432 20.42573076 5.31157365 29.89626576 -2.84375 40.546875 C-7.46534607 45.80477777 -13.2584592 50.58427324 -20.375 51.375 C-24.7179218 50.92573223 -26.70673134 49.8337428 -30 47 C-33.2146362 40.65849924 -33.00907065 33.04201597 -31.3125 26.24609375 C-27.39267175 15.80955103 -20.6755559 6.58734396 -11 0.8046875 C-7.36950014 -0.65602143 -3.82926684 -0.66912794 0 0 Z " fill="#676767" transform="translate(459,305)"/>
<path d="M0 0 C4.1598414 4.05584537 5.19629752 7.12838659 5.375 12.8125 C5.24405931 24.67572693 0.40666202 34.71300577 -8 43 C-13.88413707 47.60579419 -18.35874039 50.63677163 -26 50 C-29.36669916 48.28488911 -31.44219884 47.12324344 -33.140625 43.703125 C-35.75888482 35.46750775 -34.18458644 27.61963329 -30.609375 19.95703125 C-24.20884102 8.19682682 -14.81540656 -3.99185457 0 0 Z " fill="#676767" transform="translate(253,424)"/>
<path d="M0 0 C0.66 0.33 1.32 0.66 2 1 C1.32904297 2.03833984 1.32904297 2.03833984 0.64453125 3.09765625 C-4.82929275 11.95614754 -9.64270796 21.6297914 -10.28515625 32.1953125 C-11 36 -11 36 -13.31640625 38.2578125 C-14.38761719 38.87398438 -15.45882812 39.49015625 -16.5625 40.125 C-17.15804687 40.47554443 -17.75359375 40.82608887 -18.3671875 41.18725586 C-19.74889666 41.99682978 -21.13771035 42.7943468 -22.53173828 43.58251953 C-25.40571529 45.23299535 -28.2302322 46.95615204 -31.05859375 48.68359375 C-33.20478823 49.97812375 -35.35192752 51.27108864 -37.5 52.5625 C-38.53842041 53.19494629 -39.57684082 53.82739258 -40.64672852 54.47900391 C-42.13644165 55.35758057 -42.13644165 55.35758057 -43.65625 56.25390625 C-44.54119141 56.78314697 -45.42613281 57.3123877 -46.33789062 57.85766602 C-49.4092372 59.1756072 -51.69128576 59.21300605 -55 59 C-55.14584726 55.12539922 -55.23425444 51.25150883 -55.3125 47.375 C-55.35439453 46.28058594 -55.39628906 45.18617188 -55.43945312 44.05859375 C-55.51130284 39.31651235 -55.49408561 35.95320169 -53.2890625 31.69921875 C-48.68647552 27.28708923 -42.61069097 24.47706092 -37.0625 21.4375 C-35.17876171 20.38938671 -33.29734649 19.33719359 -31.41619873 18.28443909 C-30.14484154 17.57302626 -28.87274347 16.86293585 -27.59991455 16.15415955 C-20.4897457 12.18429433 -13.51987729 7.97942605 -6.57836914 3.72241211 C-5.7352417 3.21460205 -4.89211426 2.70679199 -4.0234375 2.18359375 C-3.29044434 1.73556396 -2.55745117 1.28753418 -1.80224609 0.82592773 C-1.20750488 0.55337158 -0.61276367 0.28081543 0 0 Z " fill="#4F4D4D" transform="translate(219,429)"/>
<path d="M0 0 C4.875 1.875 4.875 1.875 6 3 C6.33747006 6.8868862 6.32514983 10.78785709 6.375 14.6875 C6.43107422 16.32235352 6.43107422 16.32235352 6.48828125 17.99023438 C6.54215671 22.90786635 6.51079056 26.10023066 4.05078125 30.43359375 C0.21329525 33.661799 -3.76464986 36.03826673 -8.1875 38.375 C-9.41629883 39.04982422 -9.41629883 39.04982422 -10.66992188 39.73828125 C-16.69270042 43 -16.69270042 43 -19 43 C-19.15855469 42.19175781 -19.31710937 41.38351562 -19.48046875 40.55078125 C-21.23654788 32.12436115 -21.23654788 32.12436115 -27 26 C-30.16645474 24.20679176 -30.16645474 24.20679176 -33 23 C-30.39040763 20.01809668 -27.35418007 18.36783945 -23.90625 16.4609375 C-23.31831665 16.13461334 -22.7303833 15.80828918 -22.12463379 15.47207642 C-20.88537064 14.7856049 -19.64473782 14.1016009 -18.40283203 13.41992188 C-16.50353955 12.37694371 -14.60891464 11.32586288 -12.71484375 10.2734375 C-3.44335421 5.14778474 -3.44335421 5.14778474 0 4 C0 2.68 0 1.36 0 0 Z " fill="#4F4D4D" transform="translate(496,268)"/>
<path d="M0 0 C3.17100736 0.6544851 5.685696 1.77331396 8.51953125 3.328125 C9.37740234 3.79863281 10.23527344 4.26914062 11.11914062 4.75390625 C12.00794922 5.24761719 12.89675781 5.74132812 13.8125 6.25 C15.12831055 6.96736328 15.12831055 6.96736328 16.47070312 7.69921875 C18.19560081 8.65133131 19.91028741 9.62221015 21.61352539 10.61254883 C23.11403533 11.48491691 24.63506906 12.32375373 26.18139648 13.11206055 C28.1952981 14.26399085 29.55959738 15.17714663 31 17 C31.82690355 20.48252887 31.66602008 23.75913834 31.4375 27.3125 C31.40591797 28.24384766 31.37433594 29.17519531 31.34179688 30.13476562 C31.25953205 32.42642852 31.14471638 34.71157286 31 37 C25.8369376 36.47045514 22.02347068 33.88895489 17.6875 31.25 C16.96626953 30.81945312 16.24503906 30.38890625 15.50195312 29.9453125 C13.32704785 28.64231992 11.16317935 27.32234867 9 26 C8.24412598 25.54689453 7.48825195 25.09378906 6.70947266 24.62695312 C5.98679199 24.18802734 5.26411133 23.74910156 4.51953125 23.296875 C3.54077026 22.70664551 3.54077026 22.70664551 2.54223633 22.10449219 C1 21 1 21 0 19 C-0.08342159 17.55151418 -0.10732861 16.09929131 -0.09765625 14.6484375 C-0.09443359 13.79765625 -0.09121094 12.946875 -0.08789062 12.0703125 C-0.07951172 11.18085938 -0.07113281 10.29140625 -0.0625 9.375 C-0.05798828 8.4778125 -0.05347656 7.580625 -0.04882812 6.65625 C-0.03702591 4.43743352 -0.02056155 2.21874982 0 0 Z " fill="#FEF8F7" transform="translate(128,409)"/>
<path d="M0 0 C5.71910813 1.58089168 10.48759108 4.39206823 15.5625 7.375 C16.39974609 7.85710937 17.23699219 8.33921875 18.09960938 8.8359375 C20.42253996 10.18960093 22.71003906 11.59161401 25 13 C26.01320313 13.56460937 27.02640625 14.12921875 28.0703125 14.7109375 C31.23546805 18.46555522 30.52775031 22.52111627 30.3125 27.25 C30.28994141 28.18585938 30.26738281 29.12171875 30.24414062 30.0859375 C30.18530595 32.39225674 30.10317146 34.69530838 30 37 C25.90998166 35.74864069 22.38619641 34.24164928 18.70703125 32.06640625 C17.74732422 31.49986328 16.78761719 30.93332031 15.79882812 30.34960938 C14.81333984 29.75986328 13.82785156 29.17011719 12.8125 28.5625 C11.81541016 27.97662109 10.81832031 27.39074219 9.79101562 26.78710938 C0.96929111 21.54642205 0.96929111 21.54642205 -1 19 C-1.35644531 17.02294922 -1.35644531 17.02294922 -1.328125 14.8046875 C-1.32296875 14.00675781 -1.3178125 13.20882813 -1.3125 12.38671875 C-1.291875 11.55785156 -1.27125 10.72898437 -1.25 9.875 C-1.24484375 9.03839844 -1.2396875 8.20179688 -1.234375 7.33984375 C-1.1541718 1.1541718 -1.1541718 1.1541718 0 0 Z " fill="#FEF7F6" transform="translate(25,349)"/>
<path d="M0 0 C0.33 0 0.66 0 1 0 C1.1266579 7.90184437 1.21429225 15.80342754 1.2746582 23.70605469 C1.29699963 26.39515032 1.33180593 29.08365794 1.37719727 31.77246094 C1.43777116 35.63493744 1.46619417 39.49651062 1.48828125 43.359375 C1.51408768 44.5636615 1.5398941 45.767948 1.56648254 47.00872803 C1.56928385 55.32284711 1.56928385 55.32284711 -1.16333008 58.57324219 C-2.09943115 59.04407227 -3.03553223 59.51490234 -4 60 C-4.92554688 60.57169922 -5.85109375 61.14339844 -6.8046875 61.73242188 C-8.32449219 62.5919043 -8.32449219 62.5919043 -9.875 63.46875 C-11.01509521 64.11658447 -12.15519043 64.76441895 -13.32983398 65.43188477 C-14.55317006 66.12134984 -15.77655989 66.81071955 -17 67.5 C-18.26073884 68.21433757 -19.52123462 68.92910426 -20.78149414 69.64428711 C-23.31833573 71.08348086 -25.85630491 72.52065615 -28.39501953 73.95654297 C-32.5442477 76.30555945 -36.6789228 78.67966037 -40.81274414 81.05566406 C-44.86773061 83.38357556 -48.93225826 85.69446659 -53 88 C-53.68739258 88.39106934 -54.37478516 88.78213867 -55.08300781 89.18505859 C-56.90420942 90.21658791 -58.73154434 91.23591194 -60.5625 92.25 C-61.53316406 92.79140625 -62.50382813 93.3328125 -63.50390625 93.890625 C-66 95 -66 95 -70 95 C-68.50318466 90.95385205 -66.29718769 89.69401788 -62.59375 87.63671875 C-61.46936523 87.00419189 -60.34498047 86.37166504 -59.18652344 85.7199707 C-57.95771183 85.0424269 -56.72886996 84.36493798 -55.5 83.6875 C-54.24182938 82.98323492 -52.98435015 82.27773334 -51.72753906 81.57104492 C-49.12459274 80.10817323 -46.51917358 78.64985487 -43.91210938 77.19433594 C-37.82621935 73.78918049 -31.78875197 70.30032457 -25.75 66.8125 C-24.68716797 66.20172607 -23.62433594 65.59095215 -22.52929688 64.96166992 C-18.09667459 62.40736777 -13.69922574 59.83338782 -9.390625 57.07421875 C-6 55 -6 55 -4 55 C-4.33 37.51 -4.66 20.02 -5 2 C-4.34 2 -3.68 2 -3 2 C-2.67 19.16 -2.34 36.32 -2 54 C-1.34 54.33 -0.68 54.66 0 55 C0 36.85 0 18.7 0 0 Z " fill="#D9595C" transform="translate(255,280)"/>
<path d="M0 0 C1.98 0.99 3.96 1.98 6 3 C3.29238525 12.18673351 0.3189246 21.26054205 -2.82324219 30.30712891 C-3.44474074 32.11301117 -4.05531224 33.9226885 -4.65527344 35.73583984 C-5.53023493 38.37544951 -6.44062526 41.00036074 -7.359375 43.625 C-7.75041412 44.84207642 -7.75041412 44.84207642 -8.14935303 46.08374023 C-8.9392068 48.27240508 -9.65454431 50.10026305 -11 52 C-14.66503906 53.3984375 -14.66503906 53.3984375 -18 54 C-18.33 54.66 -18.66 55.32 -19 56 C-20.21101963 52.3669411 -19.68404533 51.4275127 -18.38525391 47.90185547 C-18.00801178 46.86423065 -17.63076965 45.82660583 -17.24209595 44.75753784 C-16.82446991 43.63872223 -16.40684387 42.51990662 -15.9765625 41.3671875 C-15.55579437 40.21960968 -15.13502625 39.07203186 -14.70150757 37.88967896 C-13.80953896 35.46213967 -12.91314341 33.03622317 -12.01269531 30.61181641 C-10.62928148 26.88652926 -9.25877534 23.1566977 -7.890625 19.42578125 C-7.02418641 17.07264078 -6.15702347 14.71976686 -5.2890625 12.3671875 C-4.87548492 11.24432343 -4.46190735 10.12145935 -4.03579712 8.96456909 C-3.65225067 7.9332486 -3.26870422 6.9019281 -2.87353516 5.83935547 C-2.5352066 4.92685028 -2.19687805 4.01434509 -1.84829712 3.07418823 C-1 1 -1 1 0 0 Z " fill="#D9434C" transform="translate(49,232)"/>
<path d="M0 0 C2 2 2 2 2.3125 5.25 C1.86359255 10.63688945 0.08635596 13.67875627 -3.3125 17.8125 C-6.36481958 20.29694617 -8.07752303 21 -12 21 C-13.875 20 -13.875 20 -15 18 C-15.87224963 12.4394086 -14.4373137 9.18880635 -11.35546875 4.734375 C-7.97057955 0.40327758 -5.53069429 -0.60116242 0 0 Z " fill="#868686" transform="translate(453,320)"/>
<path d="M0 0 C0.9075 0.28875 1.815 0.5775 2.75 0.875 C4.33543507 4.04587015 4.09065437 6.35490484 3.75 9.875 C1.773936 14.19072377 -0.86978829 18.75126099 -5.25 20.875 C-8.375 21.25 -8.375 21.25 -11.25 20.875 C-13.52275191 17.46587214 -13.41411618 15.89468976 -12.7890625 11.93359375 C-11.20289535 5.87627427 -6.56635499 -0.25255212 0 0 Z " fill="#878787" transform="translate(243.25,438.125)"/>
<path d="M0 0 C5.02812512 1.91547624 8.44232633 6.17514241 10.625 11 C10.9375 14.6875 10.9375 14.6875 10.625 18 C8.625 20 8.625 20 5.8125 20.375 C1.8207195 19.90537876 0.41285861 18.86320614 -2.375 16 C-5.21108708 11.59917522 -5.9651461 8.2129572 -5.375 3 C-3.79400169 0.33726601 -3.09253794 0 0 0 Z " fill="#FDE153" transform="translate(37.375,357)"/>
<path d="M0 0 C4.44033904 0.50267989 6.19372888 2.25622888 9.3125 5.375 C11.12481302 8.32613133 11.58555939 10.55262101 11.5625 14 C11.56765625 14.77601563 11.5728125 15.55203125 11.578125 16.3515625 C11.3125 18.375 11.3125 18.375 9.3125 20.375 C6.05868427 20.44895036 4.06984479 20.0588841 1.62109375 17.84765625 C-3.18846735 12.36591553 -3.91927326 8.55997103 -3.6875 1.375 C-2.6875 0.375 -2.6875 0.375 0 0 Z " fill="#FDE250" transform="translate(139.6875,417.625)"/>
<path d="M0 0 C0.66 0 1.32 0 2 0 C2 17.82 2 35.64 2 54 C1.01 53.67 0.02 53.34 -1 53 C-1.02526692 45.61271898 -1.0428316 38.22544902 -1.05493164 30.83813477 C-1.05997363 28.32283105 -1.06680703 25.80753028 -1.07543945 23.29223633 C-1.08751094 19.68570225 -1.09322949 16.07920677 -1.09765625 12.47265625 C-1.10281754 11.34038101 -1.10797882 10.20810577 -1.11329651 9.04151917 C-1.11337204 8.00051559 -1.11344757 6.95951202 -1.11352539 5.88696289 C-1.115746 4.96540909 -1.11796661 4.04385529 -1.12025452 3.09437561 C-1 1 -1 1 0 0 Z " fill="#BC2B3B" transform="translate(253,281)"/>
<path d="M0 0 C0.14695312 1.19496094 0.14695312 1.19496094 0.296875 2.4140625 C1.17979664 8.67062789 1.98599692 13.07960912 6 18 C6.33 18.66 6.66 19.32 7 20 C1.82064939 18.53171057 -2.34373412 16.18508737 -6.875 13.375 C-7.56335938 12.95476562 -8.25171875 12.53453125 -8.9609375 12.1015625 C-10.64391658 11.07307528 -12.32242532 10.037279 -14 9 C-12.74397824 5.23193471 -11.48987433 4.78753493 -8.125 2.8125 C-7.24070312 2.28269531 -6.35640625 1.75289063 -5.4453125 1.20703125 C-3 0 -3 0 0 0 Z " fill="#282828" transform="translate(416,347)"/>
<path d="M0 0 C0.14695313 1.08667969 0.14695313 1.08667969 0.296875 2.1953125 C1.21692754 8.14392808 2.18992735 12.3009104 6 17 C5.67 17.66 5.34 18.32 5 19 C-1.27 15.37 -7.54 11.74 -14 8 C-6 0 -6 0 0 0 Z " fill="#282828" transform="translate(208,466)"/>
</svg>
