<?xml version="1.0" encoding="UTF-8"?>
<svg version="1.1" xmlns="http://www.w3.org/2000/svg" width="512" height="512">
<path d="M0 0 C1.01790619 0.00215515 2.03581238 0.0043103 3.08456421 0.00653076 C17.69363523 0.05620146 32.02575853 0.30709809 46.375 3.3125 C47.34985352 3.51117676 48.32470703 3.70985352 49.32910156 3.91455078 C97.7109774 14.03517194 141.69928269 35.9516877 177.375 70.3125 C178.3640332 71.26068604 178.3640332 71.26068604 179.37304688 72.22802734 C188.86130305 81.37247479 197.6012044 90.66984009 205.375 101.3125 C206.23306152 102.46355017 207.09113451 103.61459177 207.94921875 104.765625 C213.98736829 112.95680614 219.34595521 121.47054105 224.375 130.3125 C224.73948242 130.94430176 225.10396484 131.57610352 225.47949219 132.22705078 C247.08534998 169.97532572 256.85198095 212.74189997 256.6875 255.9375 C256.68534485 256.95540619 256.6831897 257.97331238 256.68096924 259.02206421 C256.63129854 273.63113523 256.38040191 287.96325853 253.375 302.3125 C253.07698486 303.77478027 253.07698486 303.77478027 252.77294922 305.26660156 C242.65232806 353.6484774 220.7358123 397.63678269 186.375 433.3125 C185.74287598 433.97185547 185.11075195 434.63121094 184.45947266 435.31054688 C175.31502521 444.79880305 166.01765991 453.5387044 155.375 461.3125 C154.22394983 462.17056152 153.07290823 463.02863451 151.921875 463.88671875 C143.73224019 469.92427396 135.22961724 475.30707302 126.375 480.3125 C125.66778809 480.7146875 124.96057617 481.116875 124.23193359 481.53125 C101.09654164 494.5566741 75.92537591 503.30551461 49.9375 508.625 C49.21860596 508.77235596 48.49971191 508.91971191 47.7590332 509.0715332 C33.08339502 511.86090125 18.55831162 512.66142619 3.64770508 512.62817383 C0.70811513 512.6250221 -2.2304558 512.64854926 -5.16992188 512.67382812 C-18.54306192 512.71848737 -31.43916711 511.51301542 -44.625 509.3125 C-46.33055054 509.03031616 -46.33055054 509.03031616 -48.07055664 508.74243164 C-91.33802759 500.97044532 -132.38793216 480.98345309 -165.625 452.3125 C-166.37007813 451.67828125 -167.11515625 451.0440625 -167.8828125 450.390625 C-181.38779833 438.57948485 -194.05918743 425.82889772 -204.625 411.3125 C-205.48149066 410.16255169 -206.33826433 409.01281411 -207.1953125 407.86328125 C-213.23534209 399.67315742 -218.61867614 391.16870382 -223.625 382.3125 C-224.0271875 381.60528809 -224.429375 380.89807617 -224.84375 380.16943359 C-237.8691741 357.03404164 -246.61801461 331.86287591 -251.9375 305.875 C-252.08485596 305.15610596 -252.23221191 304.43721191 -252.3840332 303.6965332 C-255.35789088 288.05024391 -255.99800362 272.57681954 -255.9375 256.6875 C-255.93534485 255.66959381 -255.9331897 254.65168762 -255.93096924 253.60293579 C-255.88129854 238.99386477 -255.63040191 224.66174147 -252.625 210.3125 C-252.42632324 209.33764648 -252.22764648 208.36279297 -252.02294922 207.35839844 C-241.90232806 158.9765226 -219.9858123 114.98821731 -185.625 79.3125 C-184.99287598 78.65314453 -184.36075195 77.99378906 -183.70947266 77.31445312 C-174.56502521 67.82619695 -165.26765991 59.0862956 -154.625 51.3125 C-153.47394983 50.45443848 -152.32290823 49.59636549 -151.171875 48.73828125 C-142.98224019 42.70072604 -134.47961724 37.31792698 -125.625 32.3125 C-124.91778809 31.9103125 -124.21057617 31.508125 -123.48193359 31.09375 C-100.34654164 18.0683259 -75.17537591 9.31948539 -49.1875 4 C-48.46860596 3.85264404 -47.74971191 3.70528809 -47.0090332 3.5534668 C-31.36274391 0.57960912 -15.88931954 -0.06050362 0 0 Z " fill="#7584F1" transform="translate(255.625,-0.3125)"/>
<path d="M0 0 C5.84521528 4.87330457 11.28840066 10.07816333 16.71484375 15.41088867 C17.67304443 16.34968831 18.63135545 17.28837533 19.58976746 18.22695923 C28.27836441 26.74328265 36.92846789 35.29890299 45.56842041 43.86454296 C51.36767543 49.61285892 57.1778708 55.34914306 63.01708984 61.05688477 C68.12822497 66.05293672 73.21788141 71.06971865 78.28258419 76.11285192 C80.95882153 78.77633933 83.64432144 81.42859247 86.35568237 84.05635643 C88.90377442 86.52667313 91.42188903 89.02403701 93.92022133 91.54463577 C95.27561936 92.89752816 96.66064607 94.22053417 98.0464325 95.5422821 C103.82831744 101.45307951 103.82831744 101.45307951 104.32820988 105.95728683 C104.09750282 108.73867938 103.66940914 111.29396612 103 114 C102.79238037 115.05944824 102.58476074 116.11889648 102.37084961 117.21044922 C102.13374268 118.06654785 101.89663574 118.92264648 101.65234375 119.8046875 C101.24568481 121.28146973 101.24568481 121.28146973 100.83081055 122.78808594 C100.53601807 123.80676758 100.24122559 124.82544922 99.9375 125.875 C99.62659424 126.96071289 99.31568848 128.04642578 98.99536133 129.16503906 C88.71400011 164.24413148 71.75570528 196.19986461 48 224 C47.36320312 224.74894531 46.72640625 225.49789062 46.0703125 226.26953125 C34.25297532 239.76520621 21.51448412 252.43558025 7 263 C5.85005169 263.85649066 4.70031411 264.71326433 3.55078125 265.5703125 C-4.63934258 271.61034209 -13.14379618 276.99367614 -22 282 C-22.70721191 282.4021875 -23.41442383 282.804375 -24.14306641 283.21875 C-54.60216429 300.36748336 -90.00718525 311.65723321 -125 314 C-125.90429693 314.0896493 -126.80859387 314.17929861 -127.74029374 314.27166456 C-133.13696046 314.59248651 -137.01150066 314.66899982 -141.31893539 311.16043186 C-142.69375603 309.83683082 -144.03692653 308.47983044 -145.35247803 307.0973053 C-146.48266747 305.98355385 -146.48266747 305.98355385 -147.63568902 304.84730238 C-150.1429352 302.36209357 -152.60500241 299.83655 -155.06933594 297.30883789 C-156.86161666 295.51480863 -158.65653768 293.7234138 -160.45388794 291.9344635 C-164.81453775 287.58072319 -169.14673781 283.20032269 -173.46728954 278.806835 C-178.49861441 273.69347594 -183.5634671 268.61387995 -188.6304858 263.53592961 C-197.66553038 254.4795253 -206.67311974 245.39631536 -215.6640625 236.29614258 C-224.39411644 227.46013198 -233.13812713 218.63830365 -241.90039062 209.83422852 C-242.44087114 209.29116072 -242.98135165 208.74809293 -243.53821036 208.18856854 C-245.71057675 206.00590927 -247.88303303 203.82333951 -250.05561076 201.6408906 C-266.67796081 184.94260796 -283.28722108 168.23114979 -299.85445786 151.47817039 C-301.59518669 149.71845588 -303.33674755 147.95956401 -305.07917404 146.20153046 C-307.44566926 143.81331528 -309.80897828 141.42199547 -312.17132568 139.02967834 C-312.87129284 138.3244386 -313.57125999 137.61919885 -314.29243827 136.8925882 C-314.91901588 136.25661915 -315.54559349 135.62065011 -316.19115829 134.96540928 C-316.73752622 134.4129162 -317.28389415 133.86042312 -317.84681869 133.29118782 C-319 132 -319 132 -319 131 C-307.12 131 -295.24 131 -283 131 C-282.67 128.69 -282.34 126.38 -282 124 C-277.71760318 114.21371733 -270.9008015 108.04056497 -261.15234375 103.921875 C-251.7246776 101.16483756 -242.42784859 102.23611055 -233.65234375 106.46484375 C-225.56198252 111.14748287 -220.41943087 117.2182798 -217 126 C-217 127.65 -217 129.3 -217 131 C-160.57 131 -104.14 131 -46 131 C-45.34 128.03 -44.68 125.06 -44 122 C-40.90978909 115.35703069 -36.1922313 110.77267426 -30 107 C-29.34515625 106.58621094 -28.6903125 106.17242187 -28.015625 105.74609375 C-20.23865524 101.55062322 -11.04870856 101.67015369 -2.6484375 103.8828125 C7.77099455 107.86593716 13.72194034 113.55834975 18.87109375 123.3515625 C20 126 20 126 21 131 C25.62 131.33 30.24 131.66 35 132 C35.17177471 121.48887009 35.27116402 110.97964666 35.28240681 100.46705055 C35.28981353 95.58335387 35.3205772 90.70230836 35.40795898 85.81933594 C36.96689903 59.12444646 36.96689903 59.12444646 26.05166626 35.91273499 C24.90878429 34.74722723 23.74282465 33.60369276 22.55020142 32.48913574 C20.41959656 30.44245986 18.81729815 28.13353912 17.16796875 25.69140625 C16.66354248 24.99273437 16.15911621 24.2940625 15.6394043 23.57421875 C14.61818724 22.15924842 13.59757073 20.74384455 12.57739258 19.328125 C10.20427054 16.0376647 7.82514487 12.75309789 5.40625 9.49609375 C4.30796875 8.01302734 4.30796875 8.01302734 3.1875 6.5 C2.56230469 5.6646875 1.93710937 4.829375 1.29296875 3.96875 C0 2 0 2 0 0 Z " fill="#4855B7" transform="translate(404,198)"/>
<path d="M0 0 C18.84138661 0 34.77857215 6.91884 48.1875 20.16015625 C60.65979247 33.55369759 66.55165983 49.9418622 66.25390625 68.14453125 C65.97353943 72.4017936 65.45469761 76.54472755 64.75 80.75 C64.64083252 81.42232666 64.53166504 82.09465332 64.41918945 82.78735352 C63.31687133 88.73698007 61.35302973 93.11742568 59 99 C79.79 99 100.58 99 122 99 C123.13335539 135.69238063 123.07184915 172.28508531 123 209 C153.03 209 183.06 209 214 209 C214 231.44 214 253.88 214 277 C209.38 277 204.76 277 200 277 C199.46375 275.535625 198.9275 274.07125 198.375 272.5625 C194.5405933 263.11676643 190.07375774 256.88105589 181 252 C180.39671875 251.6596875 179.7934375 251.319375 179.171875 250.96875 C171.73078382 247.4746724 162.17370139 247.54438631 154.5390625 250.20703125 C147.67927733 253.55223513 141.74923854 257.11054565 137.8125 263.8125 C137.32394531 264.62332031 136.83539063 265.43414062 136.33203125 266.26953125 C134.60711012 269.60364704 134.60711012 269.60364704 133 276 C76.57 276 20.14 276 -38 276 C-38.99 273.03 -39.98 270.06 -41 267 C-44.45132952 259.94046235 -49.13801919 255.69127244 -56 252 C-56.60328125 251.6596875 -57.2065625 251.319375 -57.828125 250.96875 C-64.72896871 247.72835382 -73.68613758 247.40145624 -80.95263672 249.58740234 C-91.25320455 253.54351251 -97.43986721 259.24901264 -102.23828125 269.0078125 C-103.23379428 271.44522037 -103.23379428 271.44522037 -104 276 C-115.88 276 -127.76 276 -140 276 C-140 217.59 -140 159.18 -140 99 C-113.27 99 -86.54 99 -59 99 C-55.7 105.93 -52.4 112.86 -49 120 C-35.4596439 142.19988617 -19.38962564 162.61037436 -1 181 C-0.67 153.28 -0.34 125.56 0 97 C3.96 96.01 7.92 95.02 12 94 C20.27146256 89.44009115 25.80407065 84.19561541 28.875 75.125 C31.19756292 66.02945418 30.62915243 58.25882877 26 50 C20.8950155 42.29343686 14.78476853 38.62371753 6 36 C3.03 35.505 3.03 35.505 0 35 C0 23.45 0 11.9 0 0 Z " fill="#FCB912" transform="translate(225,53)"/>
<path d="M0 0 C26.73 0 53.46 0 81 0 C85.95 10.395 85.95 10.395 91 21 C102.45426699 39.7796703 115.68201635 57.37336005 130.75195312 73.41088867 C131.23083984 73.92111572 131.70972656 74.43134277 132.203125 74.95703125 C132.62239258 75.40022705 133.04166016 75.84342285 133.47363281 76.30004883 C133.97733398 76.86103271 134.48103516 77.4220166 135 78 C135.84444672 78.84381729 136.68889343 79.68763458 137.55892944 80.55702209 C140.76256557 84.43897983 140.68293771 87.91193669 140.58349609 92.78759766 C140.58583252 93.65011642 140.58816895 94.51263519 140.59057617 95.40129089 C140.59218522 98.23950652 140.5582165 101.07607868 140.5234375 103.9140625 C140.51664479 105.8913006 140.51192457 107.86854681 140.50918579 109.84579468 C140.49579039 115.04278923 140.4515139 120.23909814 140.40161133 125.43585205 C140.36619249 129.68050731 140.35312852 133.92509361 140.34119225 138.16987038 C140.32640344 143.23047748 140.30119026 148.29101179 140.2734375 153.3515625 C140.26852673 154.31729816 140.26361595 155.28303383 140.25855637 156.27803421 C140.24227448 159.00916701 140.21886971 161.74013581 140.19287109 164.47119141 C140.18861115 165.27959976 140.1843512 166.08800812 140.17996216 166.9209137 C140.13858418 170.50851494 139.87634586 173.49461657 139 177 C126.79 177 114.58 177 102 177 C101.01 174.03 100.02 171.06 99 168 C95.54867048 160.94046235 90.86198081 156.69127244 84 153 C83.39671875 152.6596875 82.7934375 152.319375 82.171875 151.96875 C75.27103129 148.72835382 66.31386242 148.40145624 59.04736328 150.58740234 C48.74679545 154.54351251 42.56013279 160.24901264 37.76171875 170.0078125 C36.76620572 172.44522037 36.76620572 172.44522037 36 177 C24.12 177 12.24 177 0 177 C0 118.59 0 60.18 0 0 Z " fill="#FECD00" transform="translate(85,152)"/>
<path d="M0 0 C0 11.55 0 23.1 0 35 C2.97 35.33 5.94 35.66 9 36 C17.72825211 38.74211567 23.93357912 44.56013471 28.3828125 52.453125 C32.49599091 61.59991335 31.79891558 69.80880656 28.3828125 79.1015625 C24.74841517 86.71942356 19.25846103 91.43321308 11.78515625 95.125 C9 96 9 96 0 97 C0 125.05 0 153.1 0 182 C-8.17878112 174.98961618 -14.99532925 168.01730152 -21.70507812 159.61132812 C-23.08727834 157.89139573 -24.487746 156.18747381 -25.890625 154.484375 C-47.48517061 128.12242889 -69.18459331 94.34743602 -67 59 C-65.03140368 41.47754363 -56.06953059 25.82632172 -42.875 14.3125 C-29.72588318 4.03691078 -16.58269174 0 0 0 Z " fill="#FE8770" transform="translate(225,53)"/>
<path d="M0 0 C18.84138661 0 34.77857215 6.91884 48.1875 20.16015625 C60.64756569 33.5405677 66.61131893 49.9832818 66.23828125 68.18359375 C63.75464499 107.96248928 36.70544472 143.06758984 10.59375 171.18359375 C7.73632963 174.28630473 4.97294396 177.45768319 2.2421875 180.671875 C1.83226562 181.11015625 1.42234375 181.5484375 1 182 C0.67 182 0.34 182 0 182 C0 153.95 0 125.9 0 97 C3.96 96.01 7.92 95.02 12 94 C20.27146256 89.44009115 25.80407065 84.19561541 28.875 75.125 C31.19756292 66.02945418 30.62915243 58.25882877 26 50 C20.8950155 42.29343686 14.78476853 38.62371753 6 36 C4.02 35.67 2.04 35.34 0 35 C0 23.45 0 11.9 0 0 Z " fill="#FE583E" transform="translate(225,53)"/>
<path d="M0 0 C12.4678125 -0.556875 12.4678125 -0.556875 25.1875 -1.125 C27.78391357 -1.28887207 30.38032715 -1.45274414 33.05541992 -1.62158203 C48.94063918 -2.20527824 48.94063918 -2.20527824 54.3303833 1.67980957 C58.32521693 5.81904642 61.07210331 10.5166674 63.68940735 15.60548401 C65.91463082 19.67107463 68.72971125 23.29533043 71.5 27 C72.56960971 28.49380516 73.636399 29.98963754 74.69921875 31.48828125 C76.94520225 34.60826737 79.28451562 37.62075262 81.70703125 40.60546875 C82.3103125 41.37310547 82.91359375 42.14074219 83.53515625 42.93164062 C84.67392815 44.37700496 85.83999383 45.80151714 87.0390625 47.19726562 C92.87781581 54.73838497 91 57.90920447 91 69 C60.97 69 30.94 69 0 69 C0 46.23 0 23.46 0 0 Z " fill="#FEFEFE" transform="translate(348,193)"/>
<path d="M0 0 C30.03 0 60.06 0 91 0 C91 22.11 91 44.22 91 67 C86.38 67 81.76 67 77 67 C76.46375 65.535625 75.9275 64.07125 75.375 62.5625 C71.5405933 53.11676643 67.07375774 46.88105589 58 42 C57.39671875 41.6596875 56.7934375 41.319375 56.171875 40.96875 C48.73078382 37.4746724 39.17370139 37.54438631 31.5390625 40.20703125 C21.71310415 44.9987023 15.06779562 50.7852866 11.17578125 61.20703125 C10.72173156 62.78815465 10.3494524 64.39251894 10 66 C6.7 66 3.4 66 0 66 C0 44.22 0 22.44 0 0 Z " fill="#FEA200" transform="translate(348,263)"/>
<path d="M0 0 C8.09036123 4.68263912 13.23291288 10.75343605 16.65234375 19.53515625 C16.65234375 21.18515625 16.65234375 22.83515625 16.65234375 24.53515625 C73.08234375 24.53515625 129.51234375 24.53515625 187.65234375 24.53515625 C187.65234375 24.86515625 187.65234375 25.19515625 187.65234375 25.53515625 C131.55234375 25.53515625 75.45234375 25.53515625 17.65234375 25.53515625 C17.65234375 28.83515625 17.65234375 32.13515625 17.65234375 35.53515625 C15.69313039 45.33122307 11.47442573 53.07724914 3.27734375 58.84765625 C1.75421955 59.7746655 0.21302954 60.67288406 -1.34765625 61.53515625 C-1.96253906 61.87675781 -2.57742187 62.21835937 -3.2109375 62.5703125 C-10.87383634 66.09819955 -20.73098719 65.80259924 -28.59765625 63.09765625 C-36.97819577 59.2116305 -44.79999835 51.90986356 -48.2421875 43.296875 C-50.44181478 36.83860859 -50.34765625 32.95528078 -50.34765625 25.53515625 C-61.89765625 25.53515625 -73.44765625 25.53515625 -85.34765625 25.53515625 C-85.34765625 25.20515625 -85.34765625 24.87515625 -85.34765625 24.53515625 C-73.46765625 24.53515625 -61.58765625 24.53515625 -49.34765625 24.53515625 C-49.01765625 22.22515625 -48.68765625 19.91515625 -48.34765625 17.53515625 C-44.06525943 7.74887358 -37.24845775 1.57572122 -27.5 -2.54296875 C-18.07233385 -5.30000619 -8.77550484 -4.2287332 0 0 Z " fill="#696C75" transform="translate(170.34765625,304.46484375)"/>
<path d="M0 0 C7.30050417 4.75582759 12.45324319 12.00160164 14.640625 20.484375 C16.21097984 31.4768589 14.619369 41.05422712 8.3125 50.3125 C2.16252971 57.85316709 -6.49177956 62.33689829 -16.10546875 63.31640625 C-26.52111108 63.69493487 -33.49513063 61.44655114 -41.375 54.625 C-48.85051973 47.44194975 -53.04981833 40.02743739 -53.375 29.5625 C-53.03582265 19.42957681 -49.60056864 10.30518 -42.1484375 3.24609375 C-40.16716751 1.67133931 -38.16069668 0.31642446 -36 -1 C-35.34515625 -1.41378906 -34.6903125 -1.82757813 -34.015625 -2.25390625 C-23.19411041 -8.09182859 -10.25693554 -5.93663574 0 0 Z " fill="#343940" transform="translate(410,306)"/>
<path d="M0 0 C6.80937076 4.93178691 10.38662092 12.15986277 13 20 C14.0148943 28.76802126 12.15705004 37.18440754 7.3046875 44.5859375 C1.73179849 51.3771909 -6.05065392 56.37416999 -14.93359375 57.30859375 C-24.93888163 57.67668126 -32.51901986 55.81691925 -40.16015625 49.1015625 C-46.47478087 42.31769825 -49.74662066 35.41463375 -49.5625 26.125 C-49.55081787 25.33561035 -49.53913574 24.5462207 -49.52709961 23.73291016 C-49.18450241 14.65735169 -46.2995713 8.91075319 -39.75 2.625 C-27.64741241 -7.19220569 -13.59903607 -7.97324436 0 0 Z " fill="#4955B6" transform="translate(243,93)"/>
<path d="M0 0 C3.53045586 1.50773134 5.80212634 3.55299544 8.50518799 6.25794983 C9.85128647 7.59775658 9.85128647 7.59775658 11.22457886 8.96463013 C12.21133956 9.95687388 13.19800003 10.94921732 14.18457031 11.94165039 C15.22906012 12.98506707 16.27398279 14.02805059 17.31930542 15.07063293 C20.15415286 17.90063539 22.9827149 20.73684439 25.81005955 23.57434011 C28.76695944 26.54002122 31.72912778 29.50043142 34.69061279 32.46153259 C39.66043996 37.43229605 44.62637941 42.40691668 49.58984375 47.3840332 C55.3362441 53.14618028 61.0878758 58.90306259 66.84252095 64.65697485 C72.37227338 70.18611804 77.89916843 75.71810767 83.42446136 81.25170708 C85.77935179 83.61013666 88.13509737 85.96770722 90.49149323 88.32463264 C93.2615692 91.09570945 96.02909385 93.86930928 98.79462051 96.64492607 C99.81288827 97.66612659 100.83201601 98.68647038 101.85203934 99.70591736 C103.23792165 101.09131266 104.62043834 102.48007238 106.00274658 103.86903381 C106.77923176 104.64719483 107.55571693 105.42535585 108.35573196 106.22709751 C110 108 110 108 110 109 C95.48 109 80.96 109 66 109 C66 95.47 66 81.94 66 68 C45.21 68 24.42 68 3 68 C3.99 64.7 4.98 61.4 6 58 C10.67770229 37.28721125 9.88532664 19.12243513 0 0 Z " fill="#4B56B4" transform="translate(281,84)"/>
<path d="M0 0 C5.43122138 2.35596167 9.42533749 5.93701559 11.84765625 11.3828125 C12.9601223 17.74954125 12.60312347 24.06903194 9.22265625 29.69140625 C5.8224074 33.87409873 2.2747961 35.98481376 -3.05859375 36.859375 C-9.10507079 37.14948375 -13.59970643 36.49175915 -18.53125 32.8828125 C-22.96696969 28.77843573 -25.25191661 24.18055622 -25.52734375 18.1953125 C-25.46662436 12.86935421 -23.50449816 9.4218838 -20.15234375 5.3828125 C-14.07367159 -0.25107877 -8.12437455 -2.32967546 0 0 Z " fill="#7D8495" transform="translate(160.15234375,316.6171875)"/>
<path d="M0 0 C5.24708089 2.77204273 8.62610816 5.41494653 11.3125 10.75 C12.2383157 16.77551715 12.32770225 22.90874555 9.25 28.3125 C5.62153586 33.06669263 2.12584315 35.34039448 -3.74609375 36.1953125 C-9.18364412 36.48447703 -13.6366861 36.4139601 -18.25 33.3125 C-22.8400182 29.16008947 -25.47394786 24.38038642 -25.83984375 18.16015625 C-25.44064812 11.35335905 -23.3033802 7.10429218 -18.1875 2.5 C-12.0948794 -1.76483442 -7.09234493 -2.40418472 0 0 Z " fill="#626877" transform="translate(397.6875,317.25)"/>
</svg>
